<?xml version="1.0" encoding="UTF-8"?>
<svg xmlns="http://www.w3.org/2000/svg" width="220.00" height="115.00" viewBox="-15.00 60.00 220.00 115.00" font-family="Helvetica, Arial, 'Noto Sans JP', sans-serif" fill="#e8efeb" role="img">
<title>Four LED bar</title>
<desc>Breadboard wiring diagram generated by Breadkit. VCC: R1.1, R2.1, R3.1, R4.1, W1, W3, W5, W7, USB.+ GND: D1.cathode, D2.cathode, D3.cathode, D4.cathode, W2, W4, W6, W8, USB.- N1: R1.2, D1.anode N2: R2.2, D2.anode N3: R3.2, D3.anode N4: R4.2, D4.anode</desc>
<g id="board"><rect x="-15.00" y="-45.00" width="320.00" height="200.00" rx="8" fill="#202a27" stroke="#52625b" stroke-width="1"/><rect x="-10.00" y="45.00" width="310.00" height="20.00" rx="2" fill="#141c19"/><rect x="7.00" y="-23.00" width="286.00" height="6.00" rx="3" fill="#ed7168" opacity="0.14" data-rail="T+"/><rect x="7.00" y="-33.00" width="286.00" height="6.00" rx="3" fill="#99aaa4" opacity="0.14" data-rail="T-"/><rect x="7.00" y="137.00" width="286.00" height="6.00" rx="3" fill="#ed7168" opacity="0.14" data-rail="B+"/><rect x="7.00" y="127.00" width="286.00" height="6.00" rx="3" fill="#99aaa4" opacity="0.14" data-rail="B-"/></g>
<g id="holes"><defs><circle id="h" r="1.3"/><circle id="u" r="1.8"/></defs><style>#holes use{fill:#718178;opacity:.75}#holes use.c{fill:#9bab9e}#holes use.o{fill:#d4e2d9;opacity:1}</style><use href="#h" x="0" y="110" data-hole="a1"/><use href="#h" x="0" y="100" data-hole="b1"/><use href="#h" x="0" y="90" data-hole="c1"/><use href="#h" x="0" y="80" data-hole="d1"/><use href="#h" x="0" y="70" data-hole="e1"/><use href="#h" x="0" y="40" data-hole="f1"/><use href="#h" x="0" y="30" data-hole="g1"/><use href="#h" x="0" y="20" data-hole="h1"/><use href="#h" x="0" y="10" data-hole="i1"/><use href="#h" x="0" y="0" data-hole="j1"/><use href="#h" x="10" y="110" data-hole="a2"/><use href="#h" x="10" y="100" data-hole="b2"/><use href="#h" x="10" y="90" data-hole="c2"/><use href="#h" x="10" y="80" data-hole="d2"/><use href="#h" x="10" y="70" data-hole="e2"/><use href="#h" x="10" y="40" data-hole="f2"/><use href="#h" x="10" y="30" data-hole="g2"/><use href="#h" x="10" y="20" data-hole="h2"/><use href="#h" x="10" y="10" data-hole="i2"/><use href="#h" x="10" y="0" data-hole="j2"/><use href="#h" x="20" y="110" data-hole="a3"/><use href="#h" x="20" y="100" data-hole="b3"/><use href="#h" x="20" y="90" data-hole="c3"/><use href="#h" x="20" y="80" data-hole="d3"/><use href="#h" x="20" y="70" data-hole="e3"/><use href="#h" x="20" y="40" data-hole="f3"/><use href="#h" x="20" y="30" data-hole="g3"/><use href="#h" x="20" y="20" data-hole="h3"/><use href="#h" x="20" y="10" data-hole="i3"/><use href="#h" x="20" y="0" data-hole="j3"/><use href="#h" x="30" y="110" data-hole="a4"/><use href="#h" x="30" y="100" data-hole="b4"/><use href="#h" x="30" y="90" data-hole="c4"/><use href="#h" x="30" y="80" data-hole="d4"/><use href="#h" x="30" y="70" data-hole="e4"/><use href="#h" x="30" y="40" data-hole="f4"/><use href="#h" x="30" y="30" data-hole="g4"/><use href="#h" x="30" y="20" data-hole="h4"/><use href="#h" x="30" y="10" data-hole="i4"/><use href="#h" x="30" y="0" data-hole="j4"/><use href="#u" x="40" y="110" data-hole="a5" class="o" data-occupied="true" data-connected="true" data-net="VCC"><title>a5 / VCC</title></use><use href="#h" x="40" y="100" data-hole="b5" class="c" data-connected="true" data-net="VCC"><title>b5 / VCC</title></use><use href="#u" x="40" y="90" data-hole="c5" class="o" data-occupied="true" data-connected="true" data-net="VCC"><title>c5 / VCC</title></use><use href="#h" x="40" y="80" data-hole="d5" class="c" data-connected="true" data-net="VCC"><title>d5 / VCC</title></use><use href="#h" x="40" y="70" data-hole="e5" class="c" data-connected="true" data-net="VCC"><title>e5 / VCC</title></use><use href="#h" x="40" y="40" data-hole="f5"/><use href="#h" x="40" y="30" data-hole="g5"/><use href="#h" x="40" y="20" data-hole="h5"/><use href="#h" x="40" y="10" data-hole="i5"/><use href="#h" x="40" y="0" data-hole="j5"/><use href="#u" x="50" y="110" data-hole="a6" class="o" data-occupied="true" data-connected="true" data-net="N1"><title>a6 / N1</title></use><use href="#u" x="50" y="100" data-hole="b6" class="o" data-occupied="true" data-connected="true" data-net="N1"><title>b6 / N1</title></use><use href="#h" x="50" y="90" data-hole="c6" class="c" data-connected="true" data-net="N1"><title>c6 / N1</title></use><use href="#h" x="50" y="80" data-hole="d6" class="c" data-connected="true" data-net="N1"><title>d6 / N1</title></use><use href="#h" x="50" y="70" data-hole="e6" class="c" data-connected="true" data-net="N1"><title>e6 / N1</title></use><use href="#h" x="50" y="40" data-hole="f6"/><use href="#h" x="50" y="30" data-hole="g6"/><use href="#h" x="50" y="20" data-hole="h6"/><use href="#h" x="50" y="10" data-hole="i6"/><use href="#h" x="50" y="0" data-hole="j6"/><use href="#h" x="60" y="110" data-hole="a7" class="c" data-connected="true" data-net="GND"><title>a7 / GND</title></use><use href="#u" x="60" y="100" data-hole="b7" class="o" data-occupied="true" data-connected="true" data-net="GND"><title>b7 / GND</title></use><use href="#u" x="60" y="90" data-hole="c7" class="o" data-occupied="true" data-connected="true" data-net="GND"><title>c7 / GND</title></use><use href="#h" x="60" y="80" data-hole="d7" class="c" data-connected="true" data-net="GND"><title>d7 / GND</title></use><use href="#h" x="60" y="70" data-hole="e7" class="c" data-connected="true" data-net="GND"><title>e7 / GND</title></use><use href="#h" x="60" y="40" data-hole="f7"/><use href="#h" x="60" y="30" data-hole="g7"/><use href="#h" x="60" y="20" data-hole="h7"/><use href="#h" x="60" y="10" data-hole="i7"/><use href="#h" x="60" y="0" data-hole="j7"/><use href="#h" x="70" y="110" data-hole="a8"/><use href="#h" x="70" y="100" data-hole="b8"/><use href="#h" x="70" y="90" data-hole="c8"/><use href="#h" x="70" y="80" data-hole="d8"/><use href="#h" x="70" y="70" data-hole="e8"/><use href="#h" x="70" y="40" data-hole="f8"/><use href="#h" x="70" y="30" data-hole="g8"/><use href="#h" x="70" y="20" data-hole="h8"/><use href="#h" x="70" y="10" data-hole="i8"/><use href="#h" x="70" y="0" data-hole="j8"/><use href="#u" x="80" y="110" data-hole="a9" class="o" data-occupied="true" data-connected="true" data-net="VCC"><title>a9 / VCC</title></use><use href="#h" x="80" y="100" data-hole="b9" class="c" data-connected="true" data-net="VCC"><title>b9 / VCC</title></use><use href="#u" x="80" y="90" data-hole="c9" class="o" data-occupied="true" data-connected="true" data-net="VCC"><title>c9 / VCC</title></use><use href="#h" x="80" y="80" data-hole="d9" class="c" data-connected="true" data-net="VCC"><title>d9 / VCC</title></use><use href="#h" x="80" y="70" data-hole="e9" class="c" data-connected="true" data-net="VCC"><title>e9 / VCC</title></use><use href="#h" x="80" y="40" data-hole="f9"/><use href="#h" x="80" y="30" data-hole="g9"/><use href="#h" x="80" y="20" data-hole="h9"/><use href="#h" x="80" y="10" data-hole="i9"/><use href="#h" x="80" y="0" data-hole="j9"/><use href="#u" x="90" y="110" data-hole="a10" class="o" data-occupied="true" data-connected="true" data-net="N2"><title>a10 / N2</title></use><use href="#u" x="90" y="100" data-hole="b10" class="o" data-occupied="true" data-connected="true" data-net="N2"><title>b10 / N2</title></use><use href="#h" x="90" y="90" data-hole="c10" class="c" data-connected="true" data-net="N2"><title>c10 / N2</title></use><use href="#h" x="90" y="80" data-hole="d10" class="c" data-connected="true" data-net="N2"><title>d10 / N2</title></use><use href="#h" x="90" y="70" data-hole="e10" class="c" data-connected="true" data-net="N2"><title>e10 / N2</title></use><use href="#h" x="90" y="40" data-hole="f10"/><use href="#h" x="90" y="30" data-hole="g10"/><use href="#h" x="90" y="20" data-hole="h10"/><use href="#h" x="90" y="10" data-hole="i10"/><use href="#h" x="90" y="0" data-hole="j10"/><use href="#h" x="100" y="110" data-hole="a11" class="c" data-connected="true" data-net="GND"><title>a11 / GND</title></use><use href="#u" x="100" y="100" data-hole="b11" class="o" data-occupied="true" data-connected="true" data-net="GND"><title>b11 / GND</title></use><use href="#u" x="100" y="90" data-hole="c11" class="o" data-occupied="true" data-connected="true" data-net="GND"><title>c11 / GND</title></use><use href="#h" x="100" y="80" data-hole="d11" class="c" data-connected="true" data-net="GND"><title>d11 / GND</title></use><use href="#h" x="100" y="70" data-hole="e11" class="c" data-connected="true" data-net="GND"><title>e11 / GND</title></use><use href="#h" x="100" y="40" data-hole="f11"/><use href="#h" x="100" y="30" data-hole="g11"/><use href="#h" x="100" y="20" data-hole="h11"/><use href="#h" x="100" y="10" data-hole="i11"/><use href="#h" x="100" y="0" data-hole="j11"/><use href="#h" x="110" y="110" data-hole="a12"/><use href="#h" x="110" y="100" data-hole="b12"/><use href="#h" x="110" y="90" data-hole="c12"/><use href="#h" x="110" y="80" data-hole="d12"/><use href="#h" x="110" y="70" data-hole="e12"/><use href="#h" x="110" y="40" data-hole="f12"/><use href="#h" x="110" y="30" data-hole="g12"/><use href="#h" x="110" y="20" data-hole="h12"/><use href="#h" x="110" y="10" data-hole="i12"/><use href="#h" x="110" y="0" data-hole="j12"/><use href="#u" x="120" y="110" data-hole="a13" class="o" data-occupied="true" data-connected="true" data-net="VCC"><title>a13 / VCC</title></use><use href="#h" x="120" y="100" data-hole="b13" class="c" data-connected="true" data-net="VCC"><title>b13 / VCC</title></use><use href="#u" x="120" y="90" data-hole="c13" class="o" data-occupied="true" data-connected="true" data-net="VCC"><title>c13 / VCC</title></use><use href="#h" x="120" y="80" data-hole="d13" class="c" data-connected="true" data-net="VCC"><title>d13 / VCC</title></use><use href="#h" x="120" y="70" data-hole="e13" class="c" data-connected="true" data-net="VCC"><title>e13 / VCC</title></use><use href="#h" x="120" y="40" data-hole="f13"/><use href="#h" x="120" y="30" data-hole="g13"/><use href="#h" x="120" y="20" data-hole="h13"/><use href="#h" x="120" y="10" data-hole="i13"/><use href="#h" x="120" y="0" data-hole="j13"/><use href="#u" x="130" y="110" data-hole="a14" class="o" data-occupied="true" data-connected="true" data-net="N3"><title>a14 / N3</title></use><use href="#u" x="130" y="100" data-hole="b14" class="o" data-occupied="true" data-connected="true" data-net="N3"><title>b14 / N3</title></use><use href="#h" x="130" y="90" data-hole="c14" class="c" data-connected="true" data-net="N3"><title>c14 / N3</title></use><use href="#h" x="130" y="80" data-hole="d14" class="c" data-connected="true" data-net="N3"><title>d14 / N3</title></use><use href="#h" x="130" y="70" data-hole="e14" class="c" data-connected="true" data-net="N3"><title>e14 / N3</title></use><use href="#h" x="130" y="40" data-hole="f14"/><use href="#h" x="130" y="30" data-hole="g14"/><use href="#h" x="130" y="20" data-hole="h14"/><use href="#h" x="130" y="10" data-hole="i14"/><use href="#h" x="130" y="0" data-hole="j14"/><use href="#h" x="140" y="110" data-hole="a15" class="c" data-connected="true" data-net="GND"><title>a15 / GND</title></use><use href="#u" x="140" y="100" data-hole="b15" class="o" data-occupied="true" data-connected="true" data-net="GND"><title>b15 / GND</title></use><use href="#u" x="140" y="90" data-hole="c15" class="o" data-occupied="true" data-connected="true" data-net="GND"><title>c15 / GND</title></use><use href="#h" x="140" y="80" data-hole="d15" class="c" data-connected="true" data-net="GND"><title>d15 / GND</title></use><use href="#h" x="140" y="70" data-hole="e15" class="c" data-connected="true" data-net="GND"><title>e15 / GND</title></use><use href="#h" x="140" y="40" data-hole="f15"/><use href="#h" x="140" y="30" data-hole="g15"/><use href="#h" x="140" y="20" data-hole="h15"/><use href="#h" x="140" y="10" data-hole="i15"/><use href="#h" x="140" y="0" data-hole="j15"/><use href="#h" x="150" y="110" data-hole="a16"/><use href="#h" x="150" y="100" data-hole="b16"/><use href="#h" x="150" y="90" data-hole="c16"/><use href="#h" x="150" y="80" data-hole="d16"/><use href="#h" x="150" y="70" data-hole="e16"/><use href="#h" x="150" y="40" data-hole="f16"/><use href="#h" x="150" y="30" data-hole="g16"/><use href="#h" x="150" y="20" data-hole="h16"/><use href="#h" x="150" y="10" data-hole="i16"/><use href="#h" x="150" y="0" data-hole="j16"/><use href="#u" x="160" y="110" data-hole="a17" class="o" data-occupied="true" data-connected="true" data-net="VCC"><title>a17 / VCC</title></use><use href="#h" x="160" y="100" data-hole="b17" class="c" data-connected="true" data-net="VCC"><title>b17 / VCC</title></use><use href="#u" x="160" y="90" data-hole="c17" class="o" data-occupied="true" data-connected="true" data-net="VCC"><title>c17 / VCC</title></use><use href="#h" x="160" y="80" data-hole="d17" class="c" data-connected="true" data-net="VCC"><title>d17 / VCC</title></use><use href="#h" x="160" y="70" data-hole="e17" class="c" data-connected="true" data-net="VCC"><title>e17 / VCC</title></use><use href="#h" x="160" y="40" data-hole="f17"/><use href="#h" x="160" y="30" data-hole="g17"/><use href="#h" x="160" y="20" data-hole="h17"/><use href="#h" x="160" y="10" data-hole="i17"/><use href="#h" x="160" y="0" data-hole="j17"/><use href="#u" x="170" y="110" data-hole="a18" class="o" data-occupied="true" data-connected="true" data-net="N4"><title>a18 / N4</title></use><use href="#u" x="170" y="100" data-hole="b18" class="o" data-occupied="true" data-connected="true" data-net="N4"><title>b18 / N4</title></use><use href="#h" x="170" y="90" data-hole="c18" class="c" data-connected="true" data-net="N4"><title>c18 / N4</title></use><use href="#h" x="170" y="80" data-hole="d18" class="c" data-connected="true" data-net="N4"><title>d18 / N4</title></use><use href="#h" x="170" y="70" data-hole="e18" class="c" data-connected="true" data-net="N4"><title>e18 / N4</title></use><use href="#h" x="170" y="40" data-hole="f18"/><use href="#h" x="170" y="30" data-hole="g18"/><use href="#h" x="170" y="20" data-hole="h18"/><use href="#h" x="170" y="10" data-hole="i18"/><use href="#h" x="170" y="0" data-hole="j18"/><use href="#h" x="180" y="110" data-hole="a19" class="c" data-connected="true" data-net="GND"><title>a19 / GND</title></use><use href="#u" x="180" y="100" data-hole="b19" class="o" data-occupied="true" data-connected="true" data-net="GND"><title>b19 / GND</title></use><use href="#u" x="180" y="90" data-hole="c19" class="o" data-occupied="true" data-connected="true" data-net="GND"><title>c19 / GND</title></use><use href="#h" x="180" y="80" data-hole="d19" class="c" data-connected="true" data-net="GND"><title>d19 / GND</title></use><use href="#h" x="180" y="70" data-hole="e19" class="c" data-connected="true" data-net="GND"><title>e19 / GND</title></use><use href="#h" x="180" y="40" data-hole="f19"/><use href="#h" x="180" y="30" data-hole="g19"/><use href="#h" x="180" y="20" data-hole="h19"/><use href="#h" x="180" y="10" data-hole="i19"/><use href="#h" x="180" y="0" data-hole="j19"/><use href="#h" x="190" y="110" data-hole="a20"/><use href="#h" x="190" y="100" data-hole="b20"/><use href="#h" x="190" y="90" data-hole="c20"/><use href="#h" x="190" y="80" data-hole="d20"/><use href="#h" x="190" y="70" data-hole="e20"/><use href="#h" x="190" y="40" data-hole="f20"/><use href="#h" x="190" y="30" data-hole="g20"/><use href="#h" x="190" y="20" data-hole="h20"/><use href="#h" x="190" y="10" data-hole="i20"/><use href="#h" x="190" y="0" data-hole="j20"/><use href="#h" x="200" y="110" data-hole="a21"/><use href="#h" x="200" y="100" data-hole="b21"/><use href="#h" x="200" y="90" data-hole="c21"/><use href="#h" x="200" y="80" data-hole="d21"/><use href="#h" x="200" y="70" data-hole="e21"/><use href="#h" x="200" y="40" data-hole="f21"/><use href="#h" x="200" y="30" data-hole="g21"/><use href="#h" x="200" y="20" data-hole="h21"/><use href="#h" x="200" y="10" data-hole="i21"/><use href="#h" x="200" y="0" data-hole="j21"/><use href="#h" x="210" y="110" data-hole="a22"/><use href="#h" x="210" y="100" data-hole="b22"/><use href="#h" x="210" y="90" data-hole="c22"/><use href="#h" x="210" y="80" data-hole="d22"/><use href="#h" x="210" y="70" data-hole="e22"/><use href="#h" x="210" y="40" data-hole="f22"/><use href="#h" x="210" y="30" data-hole="g22"/><use href="#h" x="210" y="20" data-hole="h22"/><use href="#h" x="210" y="10" data-hole="i22"/><use href="#h" x="210" y="0" data-hole="j22"/><use href="#h" x="220" y="110" data-hole="a23"/><use href="#h" x="220" y="100" data-hole="b23"/><use href="#h" x="220" y="90" data-hole="c23"/><use href="#h" x="220" y="80" data-hole="d23"/><use href="#h" x="220" y="70" data-hole="e23"/><use href="#h" x="220" y="40" data-hole="f23"/><use href="#h" x="220" y="30" data-hole="g23"/><use href="#h" x="220" y="20" data-hole="h23"/><use href="#h" x="220" y="10" data-hole="i23"/><use href="#h" x="220" y="0" data-hole="j23"/><use href="#h" x="230" y="110" data-hole="a24"/><use href="#h" x="230" y="100" data-hole="b24"/><use href="#h" x="230" y="90" data-hole="c24"/><use href="#h" x="230" y="80" data-hole="d24"/><use href="#h" x="230" y="70" data-hole="e24"/><use href="#h" x="230" y="40" data-hole="f24"/><use href="#h" x="230" y="30" data-hole="g24"/><use href="#h" x="230" y="20" data-hole="h24"/><use href="#h" x="230" y="10" data-hole="i24"/><use href="#h" x="230" y="0" data-hole="j24"/><use href="#h" x="240" y="110" data-hole="a25"/><use href="#h" x="240" y="100" data-hole="b25"/><use href="#h" x="240" y="90" data-hole="c25"/><use href="#h" x="240" y="80" data-hole="d25"/><use href="#h" x="240" y="70" data-hole="e25"/><use href="#h" x="240" y="40" data-hole="f25"/><use href="#h" x="240" y="30" data-hole="g25"/><use href="#h" x="240" y="20" data-hole="h25"/><use href="#h" x="240" y="10" data-hole="i25"/><use href="#h" x="240" y="0" data-hole="j25"/><use href="#h" x="250" y="110" data-hole="a26"/><use href="#h" x="250" y="100" data-hole="b26"/><use href="#h" x="250" y="90" data-hole="c26"/><use href="#h" x="250" y="80" data-hole="d26"/><use href="#h" x="250" y="70" data-hole="e26"/><use href="#h" x="250" y="40" data-hole="f26"/><use href="#h" x="250" y="30" data-hole="g26"/><use href="#h" x="250" y="20" data-hole="h26"/><use href="#h" x="250" y="10" data-hole="i26"/><use href="#h" x="250" y="0" data-hole="j26"/><use href="#h" x="260" y="110" data-hole="a27"/><use href="#h" x="260" y="100" data-hole="b27"/><use href="#h" x="260" y="90" data-hole="c27"/><use href="#h" x="260" y="80" data-hole="d27"/><use href="#h" x="260" y="70" data-hole="e27"/><use href="#h" x="260" y="40" data-hole="f27"/><use href="#h" x="260" y="30" data-hole="g27"/><use href="#h" x="260" y="20" data-hole="h27"/><use href="#h" x="260" y="10" data-hole="i27"/><use href="#h" x="260" y="0" data-hole="j27"/><use href="#h" x="270" y="110" data-hole="a28"/><use href="#h" x="270" y="100" data-hole="b28"/><use href="#h" x="270" y="90" data-hole="c28"/><use href="#h" x="270" y="80" data-hole="d28"/><use href="#h" x="270" y="70" data-hole="e28"/><use href="#h" x="270" y="40" data-hole="f28"/><use href="#h" x="270" y="30" data-hole="g28"/><use href="#h" x="270" y="20" data-hole="h28"/><use href="#h" x="270" y="10" data-hole="i28"/><use href="#h" x="270" y="0" data-hole="j28"/><use href="#h" x="280" y="110" data-hole="a29"/><use href="#h" x="280" y="100" data-hole="b29"/><use href="#h" x="280" y="90" data-hole="c29"/><use href="#h" x="280" y="80" data-hole="d29"/><use href="#h" x="280" y="70" data-hole="e29"/><use href="#h" x="280" y="40" data-hole="f29"/><use href="#h" x="280" y="30" data-hole="g29"/><use href="#h" x="280" y="20" data-hole="h29"/><use href="#h" x="280" y="10" data-hole="i29"/><use href="#h" x="280" y="0" data-hole="j29"/><use href="#h" x="290" y="110" data-hole="a30"/><use href="#h" x="290" y="100" data-hole="b30"/><use href="#h" x="290" y="90" data-hole="c30"/><use href="#h" x="290" y="80" data-hole="d30"/><use href="#h" x="290" y="70" data-hole="e30"/><use href="#h" x="290" y="40" data-hole="f30"/><use href="#h" x="290" y="30" data-hole="g30"/><use href="#h" x="290" y="20" data-hole="h30"/><use href="#h" x="290" y="10" data-hole="i30"/><use href="#h" x="290" y="0" data-hole="j30"/><use href="#h" x="10" y="-20" data-hole="T+1"/><use href="#h" x="20" y="-20" data-hole="T+2"/><use href="#h" x="30" y="-20" data-hole="T+3"/><use href="#h" x="40" y="-20" data-hole="T+4"/><use href="#h" x="50" y="-20" data-hole="T+5"/><use href="#h" x="70" y="-20" data-hole="T+6"/><use href="#h" x="80" y="-20" data-hole="T+7"/><use href="#h" x="90" y="-20" data-hole="T+8"/><use href="#h" x="100" y="-20" data-hole="T+9"/><use href="#h" x="110" y="-20" data-hole="T+10"/><use href="#h" x="130" y="-20" data-hole="T+11"/><use href="#h" x="140" y="-20" data-hole="T+12"/><use href="#h" x="150" y="-20" data-hole="T+13"/><use href="#h" x="160" y="-20" data-hole="T+14"/><use href="#h" x="170" y="-20" data-hole="T+15"/><use href="#h" x="190" y="-20" data-hole="T+16"/><use href="#h" x="200" y="-20" data-hole="T+17"/><use href="#h" x="210" y="-20" data-hole="T+18"/><use href="#h" x="220" y="-20" data-hole="T+19"/><use href="#h" x="230" y="-20" data-hole="T+20"/><use href="#h" x="250" y="-20" data-hole="T+21"/><use href="#h" x="260" y="-20" data-hole="T+22"/><use href="#h" x="270" y="-20" data-hole="T+23"/><use href="#h" x="280" y="-20" data-hole="T+24"/><use href="#h" x="290" y="-20" data-hole="T+25"/><use href="#h" x="10" y="-30" data-hole="T-1"/><use href="#h" x="20" y="-30" data-hole="T-2"/><use href="#h" x="30" y="-30" data-hole="T-3"/><use href="#h" x="40" y="-30" data-hole="T-4"/><use href="#h" x="50" y="-30" data-hole="T-5"/><use href="#h" x="70" y="-30" data-hole="T-6"/><use href="#h" x="80" y="-30" data-hole="T-7"/><use href="#h" x="90" y="-30" data-hole="T-8"/><use href="#h" x="100" y="-30" data-hole="T-9"/><use href="#h" x="110" y="-30" data-hole="T-10"/><use href="#h" x="130" y="-30" data-hole="T-11"/><use href="#h" x="140" y="-30" data-hole="T-12"/><use href="#h" x="150" y="-30" data-hole="T-13"/><use href="#h" x="160" y="-30" data-hole="T-14"/><use href="#h" x="170" y="-30" data-hole="T-15"/><use href="#h" x="190" y="-30" data-hole="T-16"/><use href="#h" x="200" y="-30" data-hole="T-17"/><use href="#h" x="210" y="-30" data-hole="T-18"/><use href="#h" x="220" y="-30" data-hole="T-19"/><use href="#h" x="230" y="-30" data-hole="T-20"/><use href="#h" x="250" y="-30" data-hole="T-21"/><use href="#h" x="260" y="-30" data-hole="T-22"/><use href="#h" x="270" y="-30" data-hole="T-23"/><use href="#h" x="280" y="-30" data-hole="T-24"/><use href="#h" x="290" y="-30" data-hole="T-25"/><use href="#u" x="10" y="140" data-hole="B+1" class="o" data-occupied="true" data-connected="true" data-net="VCC"><title>B+1 / VCC</title></use><use href="#h" x="20" y="140" data-hole="B+2" class="c" data-connected="true" data-net="VCC"><title>B+2 / VCC</title></use><use href="#h" x="30" y="140" data-hole="B+3" class="c" data-connected="true" data-net="VCC"><title>B+3 / VCC</title></use><use href="#u" x="40" y="140" data-hole="B+4" class="o" data-occupied="true" data-connected="true" data-net="VCC"><title>B+4 / VCC</title></use><use href="#h" x="50" y="140" data-hole="B+5" class="c" data-connected="true" data-net="VCC"><title>B+5 / VCC</title></use><use href="#h" x="70" y="140" data-hole="B+6" class="c" data-connected="true" data-net="VCC"><title>B+6 / VCC</title></use><use href="#u" x="80" y="140" data-hole="B+7" class="o" data-occupied="true" data-connected="true" data-net="VCC"><title>B+7 / VCC</title></use><use href="#h" x="90" y="140" data-hole="B+8" class="c" data-connected="true" data-net="VCC"><title>B+8 / VCC</title></use><use href="#h" x="100" y="140" data-hole="B+9" class="c" data-connected="true" data-net="VCC"><title>B+9 / VCC</title></use><use href="#u" x="110" y="140" data-hole="B+10" class="o" data-occupied="true" data-connected="true" data-net="VCC"><title>B+10 / VCC</title></use><use href="#h" x="130" y="140" data-hole="B+11" class="c" data-connected="true" data-net="VCC"><title>B+11 / VCC</title></use><use href="#h" x="140" y="140" data-hole="B+12" class="c" data-connected="true" data-net="VCC"><title>B+12 / VCC</title></use><use href="#h" x="150" y="140" data-hole="B+13" class="c" data-connected="true" data-net="VCC"><title>B+13 / VCC</title></use><use href="#u" x="160" y="140" data-hole="B+14" class="o" data-occupied="true" data-connected="true" data-net="VCC"><title>B+14 / VCC</title></use><use href="#h" x="170" y="140" data-hole="B+15" class="c" data-connected="true" data-net="VCC"><title>B+15 / VCC</title></use><use href="#h" x="190" y="140" data-hole="B+16" class="c" data-connected="true" data-net="VCC"><title>B+16 / VCC</title></use><use href="#h" x="200" y="140" data-hole="B+17" class="c" data-connected="true" data-net="VCC"><title>B+17 / VCC</title></use><use href="#h" x="210" y="140" data-hole="B+18" class="c" data-connected="true" data-net="VCC"><title>B+18 / VCC</title></use><use href="#h" x="220" y="140" data-hole="B+19" class="c" data-connected="true" data-net="VCC"><title>B+19 / VCC</title></use><use href="#h" x="230" y="140" data-hole="B+20" class="c" data-connected="true" data-net="VCC"><title>B+20 / VCC</title></use><use href="#h" x="250" y="140" data-hole="B+21" class="c" data-connected="true" data-net="VCC"><title>B+21 / VCC</title></use><use href="#h" x="260" y="140" data-hole="B+22" class="c" data-connected="true" data-net="VCC"><title>B+22 / VCC</title></use><use href="#h" x="270" y="140" data-hole="B+23" class="c" data-connected="true" data-net="VCC"><title>B+23 / VCC</title></use><use href="#h" x="280" y="140" data-hole="B+24" class="c" data-connected="true" data-net="VCC"><title>B+24 / VCC</title></use><use href="#h" x="290" y="140" data-hole="B+25" class="c" data-connected="true" data-net="VCC"><title>B+25 / VCC</title></use><use href="#u" x="10" y="130" data-hole="B-1" class="o" data-occupied="true" data-connected="true" data-net="GND"><title>B-1 / GND</title></use><use href="#h" x="20" y="130" data-hole="B-2" class="c" data-connected="true" data-net="GND"><title>B-2 / GND</title></use><use href="#h" x="30" y="130" data-hole="B-3" class="c" data-connected="true" data-net="GND"><title>B-3 / GND</title></use><use href="#h" x="40" y="130" data-hole="B-4" class="c" data-connected="true" data-net="GND"><title>B-4 / GND</title></use><use href="#u" x="50" y="130" data-hole="B-5" class="o" data-occupied="true" data-connected="true" data-net="GND"><title>B-5 / GND</title></use><use href="#h" x="70" y="130" data-hole="B-6" class="c" data-connected="true" data-net="GND"><title>B-6 / GND</title></use><use href="#h" x="80" y="130" data-hole="B-7" class="c" data-connected="true" data-net="GND"><title>B-7 / GND</title></use><use href="#h" x="90" y="130" data-hole="B-8" class="c" data-connected="true" data-net="GND"><title>B-8 / GND</title></use><use href="#u" x="100" y="130" data-hole="B-9" class="o" data-occupied="true" data-connected="true" data-net="GND"><title>B-9 / GND</title></use><use href="#h" x="110" y="130" data-hole="B-10" class="c" data-connected="true" data-net="GND"><title>B-10 / GND</title></use><use href="#h" x="130" y="130" data-hole="B-11" class="c" data-connected="true" data-net="GND"><title>B-11 / GND</title></use><use href="#u" x="140" y="130" data-hole="B-12" class="o" data-occupied="true" data-connected="true" data-net="GND"><title>B-12 / GND</title></use><use href="#h" x="150" y="130" data-hole="B-13" class="c" data-connected="true" data-net="GND"><title>B-13 / GND</title></use><use href="#h" x="160" y="130" data-hole="B-14" class="c" data-connected="true" data-net="GND"><title>B-14 / GND</title></use><use href="#u" x="170" y="130" data-hole="B-15" class="o" data-occupied="true" data-connected="true" data-net="GND"><title>B-15 / GND</title></use><use href="#h" x="190" y="130" data-hole="B-16" class="c" data-connected="true" data-net="GND"><title>B-16 / GND</title></use><use href="#h" x="200" y="130" data-hole="B-17" class="c" data-connected="true" data-net="GND"><title>B-17 / GND</title></use><use href="#h" x="210" y="130" data-hole="B-18" class="c" data-connected="true" data-net="GND"><title>B-18 / GND</title></use><use href="#h" x="220" y="130" data-hole="B-19" class="c" data-connected="true" data-net="GND"><title>B-19 / GND</title></use><use href="#h" x="230" y="130" data-hole="B-20" class="c" data-connected="true" data-net="GND"><title>B-20 / GND</title></use><use href="#h" x="250" y="130" data-hole="B-21" class="c" data-connected="true" data-net="GND"><title>B-21 / GND</title></use><use href="#h" x="260" y="130" data-hole="B-22" class="c" data-connected="true" data-net="GND"><title>B-22 / GND</title></use><use href="#h" x="270" y="130" data-hole="B-23" class="c" data-connected="true" data-net="GND"><title>B-23 / GND</title></use><use href="#h" x="280" y="130" data-hole="B-24" class="c" data-connected="true" data-net="GND"><title>B-24 / GND</title></use><use href="#h" x="290" y="130" data-hole="B-25" class="c" data-connected="true" data-net="GND"><title>B-25 / GND</title></use></g>
<g id="components"><g data-ref="R1"><line x1="40.00" y1="110.00" x2="45.00" y2="110.00" stroke="#91a199" stroke-width="0.90"/><line x1="50.00" y1="110.00" x2="45.00" y2="110.00" stroke="#91a199" stroke-width="0.90"/><rect x="33.00" y="106.00" width="24.00" height="8.00" rx="3" fill="#6b6248" stroke="#c9ac73" data-ref="R1"/><rect x="38.00" y="106.00" width="1.70" height="8.00" fill="#ff0000"/><rect x="42.00" y="106.00" width="1.70" height="8.00" fill="#ff0000"/><rect x="46.00" y="106.00" width="1.70" height="8.00" fill="#8b4513"/><rect x="50.00" y="106.00" width="1.70" height="8.00" fill="#d4af37"/></g><g data-ref="D1"><line x1="50.00" y1="100.00" x2="55.00" y2="100.00" stroke="#91a199" stroke-width="0.90"/><line x1="60.00" y1="100.00" x2="55.00" y2="100.00" stroke="#91a199" stroke-width="0.90"/><circle cx="55.00" cy="100.00" r="5.50" fill="#5fbf69" stroke="#607168" data-ref="D1"/><line x1="57.50" y1="95.00" x2="57.50" y2="105.00" stroke="#607168" stroke-width="1.20"/></g><g data-ref="R2"><line x1="80.00" y1="110.00" x2="85.00" y2="110.00" stroke="#91a199" stroke-width="0.90"/><line x1="90.00" y1="110.00" x2="85.00" y2="110.00" stroke="#91a199" stroke-width="0.90"/><rect x="73.00" y="106.00" width="24.00" height="8.00" rx="3" fill="#6b6248" stroke="#c9ac73" data-ref="R2"/><rect x="78.00" y="106.00" width="1.70" height="8.00" fill="#ff0000"/><rect x="82.00" y="106.00" width="1.70" height="8.00" fill="#ff0000"/><rect x="86.00" y="106.00" width="1.70" height="8.00" fill="#8b4513"/><rect x="90.00" y="106.00" width="1.70" height="8.00" fill="#d4af37"/></g><g data-ref="D2"><line x1="90.00" y1="100.00" x2="95.00" y2="100.00" stroke="#91a199" stroke-width="0.90"/><line x1="100.00" y1="100.00" x2="95.00" y2="100.00" stroke="#91a199" stroke-width="0.90"/><circle cx="95.00" cy="100.00" r="5.50" fill="#5fbf69" stroke="#607168" data-ref="D2"/><line x1="97.50" y1="95.00" x2="97.50" y2="105.00" stroke="#607168" stroke-width="1.20"/></g><g data-ref="R3"><line x1="120.00" y1="110.00" x2="125.00" y2="110.00" stroke="#91a199" stroke-width="0.90"/><line x1="130.00" y1="110.00" x2="125.00" y2="110.00" stroke="#91a199" stroke-width="0.90"/><rect x="113.00" y="106.00" width="24.00" height="8.00" rx="3" fill="#6b6248" stroke="#c9ac73" data-ref="R3"/><rect x="118.00" y="106.00" width="1.70" height="8.00" fill="#ff0000"/><rect x="122.00" y="106.00" width="1.70" height="8.00" fill="#ff0000"/><rect x="126.00" y="106.00" width="1.70" height="8.00" fill="#8b4513"/><rect x="130.00" y="106.00" width="1.70" height="8.00" fill="#d4af37"/></g><g data-ref="D3"><line x1="130.00" y1="100.00" x2="135.00" y2="100.00" stroke="#91a199" stroke-width="0.90"/><line x1="140.00" y1="100.00" x2="135.00" y2="100.00" stroke="#91a199" stroke-width="0.90"/><circle cx="135.00" cy="100.00" r="5.50" fill="#5fbf69" stroke="#607168" data-ref="D3"/><line x1="137.50" y1="95.00" x2="137.50" y2="105.00" stroke="#607168" stroke-width="1.20"/></g><g data-ref="R4"><line x1="160.00" y1="110.00" x2="165.00" y2="110.00" stroke="#91a199" stroke-width="0.90"/><line x1="170.00" y1="110.00" x2="165.00" y2="110.00" stroke="#91a199" stroke-width="0.90"/><rect x="153.00" y="106.00" width="24.00" height="8.00" rx="3" fill="#6b6248" stroke="#c9ac73" data-ref="R4"/><rect x="158.00" y="106.00" width="1.70" height="8.00" fill="#ff0000"/><rect x="162.00" y="106.00" width="1.70" height="8.00" fill="#ff0000"/><rect x="166.00" y="106.00" width="1.70" height="8.00" fill="#8b4513"/><rect x="170.00" y="106.00" width="1.70" height="8.00" fill="#d4af37"/></g><g data-ref="D4"><line x1="170.00" y1="100.00" x2="175.00" y2="100.00" stroke="#91a199" stroke-width="0.90"/><line x1="180.00" y1="100.00" x2="175.00" y2="100.00" stroke="#91a199" stroke-width="0.90"/><circle cx="175.00" cy="100.00" r="5.50" fill="#5fbf69" stroke="#607168" data-ref="D4"/><line x1="177.50" y1="95.00" x2="177.50" y2="105.00" stroke="#607168" stroke-width="1.20"/></g></g>
<g id="offboard"></g>
<g id="wires"><path d="M 40.00 90.00 L 40.00 140.00" fill="none" stroke="#202a27" stroke-width="3.6" stroke-linecap="round" stroke-linejoin="round"/><path d="M 60.00 90.00 L 50.00 130.00" fill="none" stroke="#202a27" stroke-width="3.6" stroke-linecap="round" stroke-linejoin="round"/><path d="M 80.00 90.00 L 80.00 140.00" fill="none" stroke="#202a27" stroke-width="3.6" stroke-linecap="round" stroke-linejoin="round"/><path d="M 100.00 90.00 L 100.00 130.00" fill="none" stroke="#202a27" stroke-width="3.6" stroke-linecap="round" stroke-linejoin="round"/><path d="M 120.00 90.00 L 110.00 140.00" fill="none" stroke="#202a27" stroke-width="3.6" stroke-linecap="round" stroke-linejoin="round"/><path d="M 140.00 90.00 L 140.00 130.00" fill="none" stroke="#202a27" stroke-width="3.6" stroke-linecap="round" stroke-linejoin="round"/><path d="M 160.00 90.00 L 160.00 140.00" fill="none" stroke="#202a27" stroke-width="3.6" stroke-linecap="round" stroke-linejoin="round"/><path d="M 180.00 90.00 L 170.00 130.00" fill="none" stroke="#202a27" stroke-width="3.6" stroke-linecap="round" stroke-linejoin="round"/><path d="M 40.00 90.00 L 40.00 140.00" fill="none" stroke="red" stroke-width="2.4" stroke-linecap="round" stroke-linejoin="round" data-ref="W1" data-net="VCC"/><path d="M 60.00 90.00 L 50.00 130.00" fill="none" stroke="black" stroke-width="2.4" stroke-linecap="round" stroke-linejoin="round" data-ref="W2" data-net="GND"/><path d="M 80.00 90.00 L 80.00 140.00" fill="none" stroke="red" stroke-width="2.4" stroke-linecap="round" stroke-linejoin="round" data-ref="W3" data-net="VCC"/><path d="M 100.00 90.00 L 100.00 130.00" fill="none" stroke="black" stroke-width="2.4" stroke-linecap="round" stroke-linejoin="round" data-ref="W4" data-net="GND"/><path d="M 120.00 90.00 L 110.00 140.00" fill="none" stroke="red" stroke-width="2.4" stroke-linecap="round" stroke-linejoin="round" data-ref="W5" data-net="VCC"/><path d="M 140.00 90.00 L 140.00 130.00" fill="none" stroke="black" stroke-width="2.4" stroke-linecap="round" stroke-linejoin="round" data-ref="W6" data-net="GND"/><path d="M 160.00 90.00 L 160.00 140.00" fill="none" stroke="red" stroke-width="2.4" stroke-linecap="round" stroke-linejoin="round" data-ref="W7" data-net="VCC"/><path d="M 180.00 90.00 L 170.00 130.00" fill="none" stroke="black" stroke-width="2.4" stroke-linecap="round" stroke-linejoin="round" data-ref="W8" data-net="GND"/><circle cx="40.00" cy="90.00" r="2.80" fill="red" stroke="#202a27" stroke-width="1.2" data-wire="W1"/><circle cx="40.00" cy="140.00" r="2.80" fill="red" stroke="#202a27" stroke-width="1.2" data-wire="W1"/><circle cx="60.00" cy="90.00" r="2.80" fill="black" stroke="#202a27" stroke-width="1.2" data-wire="W2"/><circle cx="50.00" cy="130.00" r="2.80" fill="black" stroke="#202a27" stroke-width="1.2" data-wire="W2"/><circle cx="80.00" cy="90.00" r="2.80" fill="red" stroke="#202a27" stroke-width="1.2" data-wire="W3"/><circle cx="80.00" cy="140.00" r="2.80" fill="red" stroke="#202a27" stroke-width="1.2" data-wire="W3"/><circle cx="100.00" cy="90.00" r="2.80" fill="black" stroke="#202a27" stroke-width="1.2" data-wire="W4"/><circle cx="100.00" cy="130.00" r="2.80" fill="black" stroke="#202a27" stroke-width="1.2" data-wire="W4"/><circle cx="120.00" cy="90.00" r="2.80" fill="red" stroke="#202a27" stroke-width="1.2" data-wire="W5"/><circle cx="110.00" cy="140.00" r="2.80" fill="red" stroke="#202a27" stroke-width="1.2" data-wire="W5"/><circle cx="140.00" cy="90.00" r="2.80" fill="black" stroke="#202a27" stroke-width="1.2" data-wire="W6"/><circle cx="140.00" cy="130.00" r="2.80" fill="black" stroke="#202a27" stroke-width="1.2" data-wire="W6"/><circle cx="160.00" cy="90.00" r="2.80" fill="red" stroke="#202a27" stroke-width="1.2" data-wire="W7"/><circle cx="160.00" cy="140.00" r="2.80" fill="red" stroke="#202a27" stroke-width="1.2" data-wire="W7"/><circle cx="180.00" cy="90.00" r="2.80" fill="black" stroke="#202a27" stroke-width="1.2" data-wire="W8"/><circle cx="170.00" cy="130.00" r="2.80" fill="black" stroke="#202a27" stroke-width="1.2" data-wire="W8"/></g>
<g id="component-labels"><g data-ref="R1"><rect x="32.70" y="96.00" width="24.60" height="9.00" rx="2" fill="#202a27"/><text x="45.00" y="103.00" font-size="5" font-weight="500" fill="#e8efeb" text-anchor="middle">R1 220</text></g><g data-ref="D1"><rect x="49.00" y="85.00" width="13.00" height="9.00" rx="2" fill="#202a27"/><text x="55.00" y="92.00" font-size="5" font-weight="500" fill="#e8efeb" text-anchor="middle">D1</text></g><g data-ref="R2"><rect x="72.70" y="96.00" width="24.60" height="9.00" rx="2" fill="#202a27"/><text x="85.00" y="103.00" font-size="5" font-weight="500" fill="#e8efeb" text-anchor="middle">R2 220</text></g><g data-ref="D2"><rect x="89.00" y="85.00" width="13.00" height="9.00" rx="2" fill="#202a27"/><text x="95.00" y="92.00" font-size="5" font-weight="500" fill="#e8efeb" text-anchor="middle">D2</text></g><g data-ref="R3"><rect x="112.70" y="96.00" width="24.60" height="9.00" rx="2" fill="#202a27"/><text x="125.00" y="103.00" font-size="5" font-weight="500" fill="#e8efeb" text-anchor="middle">R3 220</text></g><g data-ref="D3"><rect x="129.00" y="85.00" width="13.00" height="9.00" rx="2" fill="#202a27"/><text x="135.00" y="92.00" font-size="5" font-weight="500" fill="#e8efeb" text-anchor="middle">D3</text></g><g data-ref="R4"><rect x="152.70" y="96.00" width="24.60" height="9.00" rx="2" fill="#202a27"/><text x="165.00" y="103.00" font-size="5" font-weight="500" fill="#e8efeb" text-anchor="middle">R4 220</text></g><g data-ref="D4"><rect x="169.00" y="85.00" width="13.00" height="9.00" rx="2" fill="#202a27"/><text x="175.00" y="92.00" font-size="5" font-weight="500" fill="#e8efeb" text-anchor="middle">D4</text></g></g>
<g id="labels"><text x="-7.00" y="110.00" font-size="8" font-weight="500" fill="#c0cdc5" text-anchor="middle">a</text><text x="-7.00" y="100.00" font-size="8" font-weight="500" fill="#c0cdc5" text-anchor="middle">b</text><text x="-7.00" y="90.00" font-size="8" font-weight="500" fill="#c0cdc5" text-anchor="middle">c</text><text x="-7.00" y="80.00" font-size="8" font-weight="500" fill="#c0cdc5" text-anchor="middle">d</text><text x="-7.00" y="70.00" font-size="8" font-weight="500" fill="#c0cdc5" text-anchor="middle">e</text><text x="-7.00" y="40.00" font-size="8" font-weight="500" fill="#c0cdc5" text-anchor="middle">f</text><text x="-7.00" y="30.00" font-size="8" font-weight="500" fill="#c0cdc5" text-anchor="middle">g</text><text x="-7.00" y="20.00" font-size="8" font-weight="500" fill="#c0cdc5" text-anchor="middle">h</text><text x="-7.00" y="10.00" font-size="8" font-weight="500" fill="#c0cdc5" text-anchor="middle">i</text><text x="-7.00" y="0.00" font-size="8" font-weight="500" fill="#c0cdc5" text-anchor="middle">j</text><text x="0.00" y="-10.00" font-size="7" font-weight="500" fill="#e8efeb" text-anchor="middle">1</text><text x="40.00" y="-10.00" font-size="7" font-weight="500" fill="#e8efeb" text-anchor="middle">5</text><text x="90.00" y="-10.00" font-size="7" font-weight="500" fill="#e8efeb" text-anchor="middle">10</text><text x="140.00" y="-10.00" font-size="7" font-weight="500" fill="#e8efeb" text-anchor="middle">15</text><text x="190.00" y="-10.00" font-size="7" font-weight="500" fill="#e8efeb" text-anchor="middle">20</text><text x="240.00" y="-10.00" font-size="7" font-weight="500" fill="#e8efeb" text-anchor="middle">25</text><text x="290.00" y="-10.00" font-size="7" font-weight="500" fill="#e8efeb" text-anchor="middle">30</text></g>
<g id="nets"></g><g id="annotations"></g>
<g id="legend"></g></svg>